<svg height="50px" viewBox="0 0 512 512" width="50px" xmlns="http://www.w3.org/2000/svg"><path d="m512 256c0 141.386719-114.613281 256-256 256s-256-114.613281-256-256 114.613281-256 256-256 256 114.613281 256 256zm0 0" fill="#ffd400"/><path d="m512 256c0-21.289062-2.617188-41.964844-7.511719-61.738281l-116.738281-116.738281-292.75 345.238281 74.097656 74.097656c27.136719 9.792969 56.390625 15.140625 86.902344 15.140625 141.386719 0 256-114.613281 256-256zm0 0" fill="#fdba12"/><path d="m201.261719 77.523438-65.011719 65.011718v261.464844h251.5v-326.476562zm0 0" fill="#fff"/><path d="m255.214844 77.523438h132.535156v326.476562h-132.535156zm0 0" fill="#e9edf5"/><path d="m201.261719 142.535156v-65.011718l-65.011719 65.011718zm0 0" fill="#277bd6"/><path d="m292.019531 100h72.265625v78.761719h-72.265625zm0 0" fill="#4a98f7"/><path d="m347.554688 129.554688c0 10.71875-8.6875 19.40625-19.402344 19.40625-10.71875 0-19.40625-8.6875-19.40625-19.40625 0-10.714844 8.6875-19.40625 19.40625-19.40625 10.714844 0 19.402344 8.691406 19.402344 19.40625zm0 0" fill="#87c7ff"/><path d="m360.648438 170.894531c-5.890626-12-18.226563-20.265625-32.5-20.265625-14.269532 0-26.609376 8.265625-32.496094 20.265625zm0 0" fill="#87c7ff"/><path d="m164.5 165.332031h100v15.167969h-100zm0 0" fill="#a3d4ff"/><path d="m255.214844 165.332031h9.285156v15.167969h-9.285156zm0 0" fill="#87c7ff"/><path d="m164.5 198.332031h200.285156v15.167969h-200.285156zm0 0" fill="#a3d4ff"/><path d="m255.214844 198.332031h109.570312v15.167969h-109.570312zm0 0" fill="#87c7ff"/><path d="m362.011719 422.761719h-267.011719v-220.589844h76.371094l23.863281 33.457031h166.777344zm0 0" fill="#4a5f7c"/><path d="m232.214844 235.628906h129.796875v187.132813h-129.796875zm0 0" fill="#2f4056"/></svg>